<?xml version="1.0" encoding="utf-8" ?>
<svg baseProfile="full" height="300mm" version="1.1" viewBox="0,0,200,300" width="200mm" xmlns="http://www.w3.org/2000/svg" xmlns:ev="http://www.w3.org/2001/xml-events" xmlns:xlink="http://www.w3.org/1999/xlink"><defs /><rect fill="#222222" height="300" width="200" x="0" y="0" /><g id="header"><text fill="#FFFFFF" style="font-size:12px; font-family:Arial; font-weight:bold;" x="10" y="20">2024年骑行数据</text></g><g id="footer"><text fill="#FFFFFF" style="font-size:4px; font-family:Arial" x="10" y="280">ATHLETE</text><text fill="#FFFFFF" style="font-size:9px; font-family:Arial" x="10" y="290">神骏</text><text fill="#FFFFFF" style="font-size:4px; font-family:Arial" x="120" y="280">STATISTICS</text><text fill="#FFFFFF" style="font-size:3px; font-family:Arial" x="120" y="285">Number: 265</text><text fill="#FFFFFF" style="font-size:3px; font-family:Arial" x="120" y="290">Weekly: 10.2</text><text fill="#FFFFFF" style="font-size:3px; font-family:Arial" x="141" y="285">Total: 2552.1 km</text><text fill="#FFFFFF" style="font-size:3px; font-family:Arial" x="141" y="290">Avg: 9.6 km</text><text fill="#FFFFFF" style="font-size:3px; font-family:Arial" x="167" y="285">Min: 1.8 km</text><text fill="#FFFFFF" style="font-size:3px; font-family:Arial" x="167" y="290">Max: 75.4 km</text></g><g id="tracks"><g id="year2024"><text alignment-baseline="middle" fill="#FFFFFF" style="dominant-baseline: central; font-size:9.0px; font-family:Arial;" text-anchor="middle" x="100.0" y="150.0">2024</text><line stroke="#FFFFFF" stroke-width="0.3" x1="100.0" x2="100.0" y1="65.0" y2="60.0" /><path d="M 100.0 64.0 a86.0,86.0 0 0,1 42.35913384403234,11.155469271406648" fill="none" id="id1" stroke="none" /><text fill="#FFFFFF" style="font-size:6.75px; font-family:Arial;" text-anchor="middle"><textPath startOffset="22.145653131862478" xlink:href="#id1">January</textPath></text><path d="M 100.36049292484886 129.00309439819443 l 0.22126175465390296 -12.887387950001324 a33.88928721605318,33.88928721605318 0 0,0 0.5815832337284855,0.014979521083090893 l -0.44245830245312984 12.881690711568188" fill="#44ffe8" stroke="none"><title>2024-01-02 16.5 km</title></path><path d="M 100.72087961077811 129.0123766808444 l 0.4411720360625096 -12.844242469045017 a33.851816889802905,33.851816889802905 0 0,0 0.5805977333602155,0.0249333648287775 l -0.6615955300235614 12.83477653579041" fill="#44ffe8" stroke="none"><title>2024-01-03 16.4 km</title></path><path d="M 101.08105385017728 129.02784411241856 l 0.6595964474028219 -12.795994867007279 a33.8129837317427,33.8129837317427 0 0,0 0.5794187222438466,0.034856391506576344 l -0.8791595217791308 12.78278649767601" fill="#44ffe8" stroke="none"><title>2024-01-04 16.4 km</title></path><path d="M 101.44090949804482 129.04949213459386 l 0.7994112523547315 -11.623264162584537 a32.65072221553726,32.65072221553726 0 0,0 0.5588419955831034,0.043257904821926464 l -0.9988222427130684 11.607828490767558" fill="#46fff5" stroke="none"><title>2024-01-05 14.9 km</title></path><path d="M 101.80034050326958 129.0773143675988 l 0.9592445806006796 -11.147876064579814 a32.18907015424621,32.18907015424621 0 0,0 0.5501272063137816,0.052097618403014974 l -1.1504713502994741 11.129766690671616" fill="#46fffa" stroke="none"><title>2024-01-06 14.3 km</title></path><path d="M 102.15924093988457 129.11130261209362 l 1.299237457786647 -12.568943830876465 a33.63591575610741,33.63591575610741 0 0,0 0.5738352872473037,0.06429944084192991 l -1.5148086466347475 12.544788629527565" fill="#44ffea" stroke="none"><title>2024-01-07 16.1 km</title></path><path d="M 102.51750503828377 129.15144685158666 l 1.5096874383077927 -12.502377678063729 a33.593196725467706,33.593196725467706 0 0,0 0.5719196601400162,0.07404645023561664 l -1.7240849203386004 12.474619631627716" fill="#44ffeb" stroke="none"><title>2024-01-08 16.1 km</title></path><path d="M 102.87502721639298 129.19773525538625 l 1.7509872452576931 -12.669271453364102 a33.789698803806196,33.789698803806196 0 0,0 0.57390177392361,0.08434379737378846 l -1.968214124788985 12.63734658269143" fill="#44ffe9" stroke="none"><title>2024-01-09 16.3 km</title></path><path d="M 103.23170211078529 129.25015418208739 l 1.9546362131787975 -12.550166650017447 a33.70146785490087,33.70146785490087 0 0,0 0.5708747760058103,0.09393722714842627 l -2.1697884922376787 12.514763424373353" fill="#44ffea" stroke="none"><title>2024-01-10 16.2 km</title></path><path d="M 103.58742460773223 129.3086881835917 l 1.9697890759971854 -11.361219939274818 a32.530714961028806,32.530714961028806 0 0,0 0.5494054614013336,0.10011997672616786 l -2.1645292709495725 11.325731788617285" fill="#46fff6" stroke="none"><title>2024-01-11 14.7 km</title></path><path d="M 103.94208987418118 129.37332000966035 l 2.392822166208972 -12.520256684009698 a33.746859430957514,33.746859430957514 0 0,0 0.5680777814826786,0.11363146624269942 l -2.6073964332226076 12.47733582110414" fill="#44ffe9" stroke="none"><title>2024-01-12 16.3 km</title></path><path d="M 104.9986988182912 129.60360301121753 l 3.0734370223860847 -12.540671864290795 a33.911795612477306,33.911795612477306 0 0,0 0.5642191373438983,0.14342229835104567 l -3.2882614529553775 12.486064334104482" fill="#44ffe7" stroke="none"><title>2024-01-15 16.5 km</title></path><path d="M 105.3480935250658 129.69241777938228 l 3.2210360066883537 -12.230798364841442 a33.64782596329468,33.64782596329468 0 0,0 0.5573018899117346,0.1518951083068687 l -3.430519297534781 12.173702762390432" fill="#44ffea" stroke="none"><title>2024-01-16 16.1 km</title></path><path d="M 105.69591212413111 129.7872172852381 l 3.475797520694983 -12.334379203055724 a33.81476019009497,33.81476019009497 0 0,0 0.5573638415961185,0.16224049118096778 l -3.6870213746727063 12.272895017572239" fill="#44ffe8" stroke="none"><title>2024-01-17 16.4 km</title></path><path d="M 106.04205211174951 129.88797359093562 l 3.6557904904448875 -12.168937561272438 a33.706212869308246,33.706212869308246 0 0,0 0.5527166729509096,0.1712330381434915 l -3.864147796267427 12.1043879353223" fill="#44ffea" stroke="none"><title>2024-01-18 16.2 km</title></path><path d="M 106.38641147887787 129.99465700312896 l 3.863382321451921 -12.101990096365272 a33.70369581083514,33.70369581083514 0 0,0 0.5496547367832416,0.18068242951096983 l -4.070559795882905 12.03388674545228" fill="#44ffea" stroke="none"><title>2024-01-19 16.2 km</title></path><path d="M 106.72888874123014 130.10723608172694 l 2.588562030890021 -7.652623686996328 a29.0785705841159,29.0785705841159 0 0,0 0.47148025909871355,0.16400530850702694 l -2.7195480620337524 7.60705994592071" fill="#4be4ff" stroke="none"><title>2024-01-20 10.3 km</title></path><path d="M 108.07796709384702 130.6158196554323 l 4.85980355083086 -11.661759372631066 a33.63385618953361,33.63385618953361 0 0,0 0.5310384285338704,0.22666872764424043 l -5.05927705453516 11.576615995327423" fill="#44ffea" stroke="none"><title>2024-01-24 16.1 km</title></path><path d="M 108.4095320186766 130.7573450057729 l 5.075589223159144 -11.613941429411254 a33.674590387387056,33.674590387387056 0 0,0 0.5277074457531269,0.23603682831764325 l -5.274210071767903 11.525100850183758" fill="#44ffea" stroke="none"><title>2024-01-25 16.2 km</title></path><path d="M 108.73861861582097 130.90454125486303 l 5.369246862840299 -11.732773390086981 a33.90297575357148,33.90297575357148 0 0,0 0.5271287722324669,0.2467228816968392 l -5.569864348944271 11.638874276819609" fill="#44ffe8" stroke="none"><title>2024-01-26 16.5 km</title></path><path d="M 109.06512990194946 131.0573650232925 l 5.4971986412417815 -11.48703089550895 a33.7346406190221,33.7346406190221 0 0,0 0.5202198861570412,0.2544656148703452 l -5.69357877666089 11.390971530541384" fill="#44ffe9" stroke="none"><title>2024-01-27 16.3 km</title></path><path d="M 109.71004243097381 131.37971332152244 l 5.859226029951169 -11.235838480341943 a33.671803187644215,33.671803187644215 0 0,0 0.5102259222353412,0.2716665650009586 l -6.051240767973069 11.133601447618412" fill="#44ffea" stroke="none"><title>2024-01-29 16.2 km</title></path><path d="M 110.02825361518725 131.54914285379988 l 6.057870977167062 -11.145800285759334 a33.68568739903502,33.68568739903502 0 0,0 0.5056956537382195,0.2805008546237935 l -6.248310819061381 11.040166515702394" fill="#44ffea" stroke="none"><title>2024-01-30 16.2 km</title></path><path d="M 110.34350942703115 131.72400993836675 l 6.23108272652736 -11.00972612695872 a33.650709914288015,33.650709914288015 0 0,0 0.5002859570040724,0.2888402319480908 l -6.41916115139183 10.901138997734458" fill="#44ffea" stroke="none"><title>2024-01-31 16.2 km</title></path><line stroke="#FFFFFF" stroke-width="0.3" x1="143.13028292997686" x2="145.6673583964461" y1="76.7553504044142" y2="72.44684160467386" /><path d="M 143.63769802327073 75.89364864446614 a86.0,86.0 0 0,1 29.32050498858742,28.57503671076993" fill="none" id="id2" stroke="none" /><text fill="#FFFFFF" style="font-size:6.75px; font-family:Arial;" text-anchor="middle"><textPath startOffset="20.669276256404974" xlink:href="#id2">February</textPath></text><path d="M 110.65571695917076 131.90426304109056 l 6.214909914094849 -10.554275743218586 a33.24817707678194,33.24817707678194 0 0,0 0.48932963993387135,0.29382838919777404 l -6.395172310586155 10.44603335348489" fill="#45ffef" stroke="none"><title>2024-02-01 15.6 km</title></path><path d="M 110.96478420261332 132.08984904055464 l 6.642783580931455 -10.850487754884545 a33.72240772110342,33.72240772110342 0 0,0 0.49112009260438994,0.30649526087013923 l -6.828067802325557 10.73485669717286" fill="#44ffe9" stroke="none"><title>2024-02-02 16.2 km</title></path><path d="M 111.5731344415666 132.4767994020092 l 6.747166514600928 -10.2160700629858 a33.24305286714007,33.24305286714007 0 0,0 0.4734819289309157,0.31857977261182713 l -6.9215447316288445 10.098740616316855" fill="#45ffef" stroke="none"><title>2024-02-04 15.6 km</title></path><path d="M 111.8722381534696 132.6780497279521 l 7.235173294120405 -10.556334061895186 a33.79780924308069,33.79780924308069 0 0,0 0.4757523009441664,0.33211205484471945 l -7.415320686238332 10.430577191245339" fill="#44ffe9" stroke="none"><title>2024-02-05 16.3 km</title></path><path d="M 114.13192950727249 134.4665339218357 l 9.80847215844879 -10.781229093555618 a35.57535683442416,35.57535683442416 0 0,0 0.44819906158432865,0.4148463601789909 l -9.992100991347083 10.611264987244253" fill="#42ffd5" stroke="none"><title>2024-02-13 18.6 km</title></path><path d="M 115.41159269507618 135.73525988315686 l 9.448847911571185 -8.74571256384173 a33.87510058622232,33.87510058622232 0 0,0 0.39134177554429506,0.43015316431189415 l -9.597587387957358 8.582221823972164" fill="#44ffe8" stroke="none"><title>2024-02-18 16.4 km</title></path><path d="M 115.6541949942343 136.00192230759916 l 8.783275621358102 -7.854059220983578 a32.7827066876614,32.7827066876614 0 0,0 0.3715200707216261,0.42272164148248403 l -8.91680675603832 7.7021253016897955" fill="#46fff4" stroke="none"><title>2024-02-19 15.0 km</title></path><path d="M 115.8921839302757 136.27271002978787 l 9.714470536311753 -8.391128276900076 a33.83674302774116,33.83674302774116 0 0,0 0.37591886198022995,0.4428314741781805 l -9.857083961799095 8.223130020272345" fill="#44ffe8" stroke="none"><title>2024-02-20 16.4 km</title></path><path d="M 116.1254893667686 136.54754324733833 l 4.863390221829331 -4.05721309551719 a27.333525286301565,27.333525286301565 0 0,0 0.2974840069336012,0.36288211823606487 l -4.932321048001559 3.9731286955826293" fill="#4dd2ff" stroke="none"><title>2024-02-21 8.1 km</title></path><path d="M 116.7966241395341 137.39550010848427 l 5.079485382423959 -3.81174052713514 a27.3506328500759,27.3506328500759 0 0,0 0.27858310141597653,0.37795148050454636 l -5.144170503423762 3.7239827373617183" fill="#4dd2ff" stroke="none"><title>2024-02-24 8.1 km</title></path><path d="M 117.21940702142032 137.9795165725059 l 10.494676565126994 -7.3260993001148345 a33.79882678848998,33.79882678848998 0 0,0 0.3280260849093041,0.4785998610609933 l -10.618892386851623 7.144864703983792" fill="#44ffe9" stroke="none"><title>2024-02-26 16.3 km</title></path><path d="M 117.42321728460499 138.27688183743584 l 10.389484257708101 -6.9905086765365185 a33.522323853738044,33.522323853738044 0 0,0 0.3171460238248853,0.4801995019066168 l -10.50795472045371 6.811129296290844" fill="#45ffec" stroke="none"><title>2024-02-27 16.0 km</title></path><path d="M 117.62189284568427 138.57770195909677 l 10.778549803355519 -6.986525759790752 a33.844791865018095,33.844791865018095 0 0,0 0.31182706935642873,0.49024394612785865 l -10.896894564337837 6.800468138984222" fill="#44ffe8" stroke="none"><title>2024-02-28 16.4 km</title></path><path d="M 117.81537515405839 138.8818882844181 l 10.887360788161143 -6.794518357534927 a33.833553858634325,33.833553858634325 0 0,0 0.3032647005961198,0.49536009719671 l -11.002393453212665 6.606621144213663" fill="#44ffe8" stroke="none"><title>2024-02-29 16.4 km</title></path><line stroke="#FFFFFF" stroke-width="0.3" x1="172.87174338648825" x2="177.1583165268699" y1="106.2426118716644" y2="103.66864786411523" /><path d="M 173.72905801456457 105.72781907015455 a86.0,86.0 0 0,1 12.242430191666344,42.057860355516425" fill="none" id="id3" stroke="none" /><text fill="#FFFFFF" style="font-size:6.75px; font-family:Arial;" text-anchor="middle"><textPath startOffset="22.145653131862474" xlink:href="#id3">March</textPath></text><path d="M 118.00360718960297 139.18935116829354 l 10.839589123115466 -6.50886182173864 a33.64365352943721,33.64365352943721 0 0,0 0.29306231989616643,0.49768388872647784 l -10.9497251531414 6.321826764718606" fill="#44ffea" stroke="none"><title>2024-03-01 16.1 km</title></path><path d="M 118.53625476483649 140.13048839642627 l 10.900494854438499 -5.803899537174138 a33.34933350060846,33.34933350060846 0 0,0 0.2647173714102379,0.5076304639728815 l -10.998520294823681 5.615922830096759" fill="#45ffee" stroke="none"><title>2024-03-04 15.8 km</title></path><path d="M 118.70294669586156 140.4501421533218 l 11.180367889602728 -5.708775507706351 a33.553515202693134,33.553515202693134 0 0,0 0.25753135678197053,0.5152352269806588 l -11.276719159596436 5.516008424561942" fill="#45ffeb" stroke="none"><title>2024-03-05 16.0 km</title></path><path d="M 118.8641267826498 140.77261029715802 l 11.826223432170991 -5.784798500288409 a34.165236585666406,34.165236585666406 0 0,0 0.2531818794969795,0.529052752459364 l -11.923784569627882 5.5809332457639425" fill="#44ffe5" stroke="none"><title>2024-03-06 16.8 km</title></path><path d="M 119.0197475246899 141.09779779509293 l 12.910678171926401 -6.0428492828188975 a35.25488121009508,35.25488121009508 0 0,0 0.25184666053352406,0.5503304043515083 l -13.012509297314978 5.820329896252705" fill="#42ffd9" stroke="none"><title>2024-03-07 18.2 km</title></path><path d="M 119.16976305983485 141.42560881287824 l 11.75400597649768 -5.257417368367123 a33.876222034461485,33.876222034461485 0 0,0 0.23288469843077983,0.5328857652703701 l -11.842524556945431 5.054869533320903" fill="#44ffe8" stroke="none"><title>2024-03-08 16.4 km</title></path><path d="M 119.31412917781788 141.75594674310238 l 16.76543644790495 -7.156167885135597 a39.22883973512812,39.22883973512812 0 0,0 0.2590488676229782,0.6216229788661367 l -16.88581116006441 6.867312396828182" fill="#3dffab" stroke="none"><title>2024-03-09 23.3 km</title></path><path d="M 119.58574465831526 142.42381321644754 l 11.937460616900522 -4.617666212478804 a33.79944558291176,33.79944558291176 0 0,0 0.20467868486809113,0.5429345289032191 l -12.014969985583054 4.412063403381427" fill="#44ffe9" stroke="none"><title>2024-03-11 16.3 km</title></path><path d="M 119.71291397450082 142.7611449362534 l 11.878798491991564 -4.362059344762911 a33.65438324615524,33.65438324615524 0 0,0 0.19449001085854123,0.544023175077592 l -11.951928672894047 4.1575012133044025" fill="#44ffea" stroke="none"><title>2024-03-12 16.2 km</title></path><path d="M 119.83427380445688 143.10060997987247 l 12.122115039469033 -4.216700865920138 a33.83457203114981,33.83457203114981 0 0,0 0.1861136344979867,0.5502118901676678 l -12.192714095539387 4.007987301278308" fill="#44ffe8" stroke="none"><title>2024-03-13 16.4 km</title></path><path d="M 119.94978838288452 143.4421083053983 l 12.138581179784026 -3.9901927366531913 a33.77758941012924,33.77758941012924 0 0,0 0.1763436007304108,0.5523938176522027 l -12.205289496291694 3.781229885309602" fill="#44ffe9" stroke="none"><title>2024-03-14 16.3 km</title></path><path d="M 120.05942366710727 143.78553927170694 l 12.236059254198954 -3.790762434963424 a33.809801946579725,33.809801946579725 0 0,0 0.16699414656417966,0.5558692020094828 l -12.299329720766762 3.5801556293632175" fill="#44ffe9" stroke="none"><title>2024-03-15 16.4 km</title></path><path d="M 120.16314734710363 144.1308016681162 l 21.88147449880737 -6.369378322576517 a43.78964471987365,43.78964471987365 0 0,0 0.2038960710584553,0.723555225376115 l -21.987589061940408 5.992815173297389" fill="#37ff74" stroke="none"><title>2024-03-16 29.1 km</title></path><path d="M 120.26092885502905 144.4777937442132 l 29.42991622728898 -8.021254536772025 a51.50345051775181,51.50345051775181 0 0,0 0.2251694539229846,0.8550050925028172 l -29.563275162016694 7.514868939896409" fill="#49ff2c" stroke="none"><title>2024-03-17 38.9 km</title></path><path d="M 120.35273937422433 144.82641323984038 l 12.4053993751051 -3.15340401021482 a33.79991759768386,33.79991759768386 0 0,0 0.13811688250489468,0.5635640131216836 l -12.457703784126286 2.9399841724850417" fill="#44ffe9" stroke="none"><title>2024-03-18 16.3 km</title></path><path d="M 120.43855184770803 145.17655741523228 l 12.384462444894654 -2.922699415852204 a33.72466431480331,33.72466431480331 0 0,0 0.12813628142547948,0.5645920986912657 l -12.4328095878778 2.7096729832219117" fill="#44ffe9" stroke="none"><title>2024-03-19 16.2 km</title></path><path d="M 120.51834098615036 145.52812308129327 l 12.482625549649814 -2.720530140229967 a33.775649684327995,33.775649684327995 0 0,0 0.11860446314840947,0.5675652914641273 l -12.52748772362259 2.5058483974804355" fill="#44ffe9" stroke="none"><title>2024-03-20 16.3 km</title></path><path d="M 120.592083275326 145.88100663000787 l 12.529223046346607 -2.506195510625786 a33.777419382746416,33.777419382746416 0 0,0 0.10884967651290424,0.569547503010691 l -12.570399015141668 2.2907454425817804" fill="#44ffe9" stroke="none"><title>2024-03-21 16.3 km</title></path><path d="M 120.65975698304385 146.23510406497454 l 12.564262563950024 -2.2896271767587186 a33.771181871088835,33.771181871088835 0 0,0 0.09903830471590255,0.5712266231960252 l -12.60171568615816 2.0736075206421005" fill="#44ffe9" stroke="none"><title>2024-03-22 16.3 km</title></path><path d="M 120.7213421655516 146.59031103205396 l 13.07319948249534 -2.151189999908757 a34.24900611837823,34.24900611837823 0 0,0 0.09048017881881192,0.5809476541175573 l -13.108201153452416 1.9264541638597585" fill="#44ffe4" stroke="none"><title>2024-03-23 16.9 km</title></path><path d="M 120.82617615685814 147.30363454192243 l 12.583478526626934 -1.6291832252885536 a33.68850542072008,33.68850542072008 0 0,0 0.06933080577683494,0.5741585288131235 l -12.609591418663433 1.4129310195520173" fill="#44ffea" stroke="none"><title>2024-03-25 16.2 km</title></path><path d="M 120.86939407059847 147.661540864999 l 12.742513039632493 -1.42782516442957 a33.82225889870355,33.82225889870355 0 0,0 0.059700486582886694,0.5775480517738559 l -12.765145918697046 1.2088725903727828" fill="#44ffe8" stroke="none"><title>2024-03-26 16.4 km</title></path><path d="M 120.9064616781168 148.02013634271609 l 12.716197221888534 -1.2042370978932486 a33.773091198840945,33.773091198840945 0 0,0 0.04970494758357085,0.5776468344612351 l -12.734995792169846 0.9857692160563514" fill="#44ffe9" stroke="none"><title>2024-03-27 16.3 km</title></path><path d="M 120.93736805541906 148.37931529534043 l 12.7269218744606 -0.9851442437626314 a33.76499312885214,33.76499312885214 0 0,0 0.03977200863316968,0.578276276770257 l -12.741957844258836 0.7665245428380404" fill="#44ffe9" stroke="none"><title>2024-03-28 16.3 km</title></path><path d="M 120.96210409425399 148.7389718711861 l 12.812542045632938 -0.7707707131166722 a33.835704934412846,33.835704934412846 0 0,0 0.0299017572951954,0.5800861032081316 l -12.823885392384707 0.55071281653181" fill="#44ffe8" stroke="none"><title>2024-03-29 16.4 km</title></path><path d="M 120.98066250479742 149.09900007780936 l 34.53214612175133 -1.4829589371479306 a55.56397377303791,55.56397377303791 0 0,0 0.03274388414953644,0.953302460302338 l -34.55251469289772 0.8899502122814726" fill="#76ff27" stroke="none"><title>2024-03-30 44.1 km</title></path><path d="M 120.99303781780057 149.45929381324524 l 32.70553067502125 -0.8423784556843322 a53.716377216882634,53.716377216882634 0 0,0 0.01582987974659695,0.9220111347997297 l -32.715171986366514 0.280820404915536" fill="#61ff29" stroke="none"><title>2024-03-31 41.8 km</title></path><line stroke="#FFFFFF" stroke-width="0.3" x1="184.99686870605535" x2="189.99668451229388" y1="149.2704041080226" y2="149.22748670261217" /><path d="M 185.99683186730306 149.2618206269405 a86.0,86.0 0 0,1 -10.086455211305974,41.156179273409016" fill="none" id="id4" stroke="none" /><text fill="#FFFFFF" style="font-size:6.75px; font-family:Arial;" text-anchor="middle"><textPath startOffset="21.40746469413373" xlink:href="#id4">April</textPath></text><path d="M 120.99922638620191 149.81974689727616 l 12.921974555448191 -0.11091961027994705 a33.922450602404915,33.922450602404915 0 0,0 0.0,0.5823454260075462 l -12.921974555448191 -0.11091961027994549" fill="#44ffe7" stroke="none"><title>2024-04-01 16.5 km</title></path><path d="M 120.99303781780057 150.54070618675476 l 12.788863737221563 0.32939576464802045 a33.793105067144126,33.793105067144126 0 0,0 -0.019914297740684987,0.5797830503151826 l -12.781324752484032 -0.5488850795273138" fill="#44ffe9" stroke="none"><title>2024-04-03 16.3 km</title></path><path d="M 120.98066250479742 150.90099992219064 l 62.94198751439227 2.702999766571932 a84.0,84.0 0 0,0 -0.07423364217370931,1.4401128264930774 l -62.886312282761985 -3.7830843864417396" fill="#ff0000" stroke="none"><title>2024-04-04 80.4 km</title></path><path d="M 120.96210409425399 151.2610281288139 l 19.70366362174391 1.1853234749710728 a40.73928448194493,40.73928448194493 0 0,0 -0.0479870725263243,0.6977215028180193 l -19.68041258805252 -1.5233884019434354" fill="#3bff99" stroke="none"><title>2024-04-05 25.2 km</title></path><path d="M 120.9064616781168 151.97986365728391 l 12.756113921061116 1.2080172508061262 a33.813186490695216,33.813186490695216 0 0,0 -0.0596844726562534,0.577393131560342 l -12.733497055923197 -1.4268149046493996" fill="#44ffe8" stroke="none"><title>2024-04-07 16.4 km</title></path><path d="M 120.86939407059847 152.338459135001 l 12.720254292078112 1.4253310253387956 a33.7998608502954,33.7998608502954 0 0,0 -0.06955997479349706,0.57605637702046 l -12.693912231024951 -1.6434810792826642" fill="#44ffe9" stroke="none"><title>2024-04-08 16.3 km</title></path><path d="M 120.82617615685814 152.69636545807757 l 12.680623977802194 1.6417606488628806 a33.78646168783869,33.78646168783869 0 0,0 -0.07940700716629272,0.5745495472989087 l -12.650572454080692 -1.8591985043618746" fill="#44ffe9" stroke="none"><title>2024-04-09 16.3 km</title></path><path d="M 120.77682067341334 153.0534771498775 l 12.661811257434572 1.8608502214254459 a33.7978212155615,33.7978212155615 0 0,0 -0.08928822333414081,0.5732944448548073 l -12.628001541962163 -2.0779328482117037" fill="#44ffe9" stroke="none"><title>2024-04-10 16.3 km</title></path><path d="M 120.7213421655516 153.40968896794604 l 12.525163156471596 2.061010831013826 a33.69359987323493,33.69359987323493 0 0,0 -0.09881078559699065,0.5699143533790019 l -12.487937553382372 -2.2757182173134165" fill="#44ffea" stroke="none"><title>2024-04-11 16.2 km</title></path><path d="M 120.65975698304385 153.76489593502544 l 12.670211486755747 2.3089345998382322 a33.8788756537769,33.8788756537769 0 0,0 -0.10917662518108426,0.5712582365979852 l -12.628708569292504 -2.526095401469532" fill="#44ffe8" stroke="none"><title>2024-04-12 16.4 km</title></path><path d="M 120.592083275326 154.11899336999213 l 17.877010981094635 3.5759028711115013 a39.2311437644982,39.2311437644982 0 0,0 -0.1377616356272646,0.6592392967499248 l -17.812991634643005 -3.882258619146835" fill="#3dffab" stroke="none"><title>2024-04-13 23.3 km</title></path><path d="M 120.43855184770803 154.82344258476772 l 15.983936550143248 3.7721655038310202 a37.423016173264216,37.423016173264216 0 0,0 -0.15292198014516506,0.6239738637459691 l -15.916827043481788 -4.045995192185089" fill="#3fffc0" stroke="none"><title>2024-04-15 21.0 km</title></path><path d="M 120.35273937422433 155.1735867601596 l 12.546114036873815 3.1891731269760215 a33.945107286541436,33.945107286541436 0 0,0 -0.14840561543411918,0.5635202943450075 l -12.489518940634966 -3.404073925693832" fill="#44ffe7" stroke="none"><title>2024-04-16 16.5 km</title></path><path d="M 120.26092885502905 155.5222062557868 l 12.655837498143224 3.4494047881284815 a34.11749275478252,34.11749275478252 0 0,0 -0.15885999467605885,0.5637380782002882 l -12.594759011392586 -3.6661507902317783" fill="#44ffe5" stroke="none"><title>2024-04-17 16.7 km</title></path><path d="M 120.16314734710363 155.8691983318838 l 12.435258501514305 3.619722516391549 a33.95137232478303,33.95137232478303 0 0,0 -0.16769339421206755,0.5581967700113418 l -12.371288787298608 -3.8326568899936144" fill="#44ffe7" stroke="none"><title>2024-04-18 16.5 km</title></path><path d="M 120.05942366710727 156.21446072829306 l 12.525408214914776 3.880403482631677 a34.1127183351994,34.1127183351994 0 0,0 -0.17809321763285887,0.5578744676795805 l -12.456950281504662 -4.094846984002642" fill="#44ffe5" stroke="none"><title>2024-04-19 16.7 km</title></path><path d="M 119.83427380445688 156.89939002012753 l 24.70320463920026 8.593056909125055 a47.155094082982515,47.155094082982515 0 0,0 -0.2725111523558389,0.76226219379721 l -24.552053316800475 -9.015854059303187" fill="#32ff49" stroke="none"><title>2024-04-21 33.4 km</title></path><path d="M 119.71291397450082 157.2388550637466 l 12.214443285416918 4.48531276207352 a34.011942796765055,34.011942796765055 0 0,0 -0.20596550036223685,0.5463479598843164 l -12.13564710124024 -4.694329002151996" fill="#44ffe6" stroke="none"><title>2024-04-22 16.6 km</title></path><path d="M 119.58574465831526 157.57618678355246 l 12.14711980450397 4.698766890236143 a34.02424392560858,34.02424392560858 0 0,0 -0.21539181289267603,0.5429280728356669 l -12.064669316645169 -4.906595980285373" fill="#44ffe6" stroke="none"><title>2024-04-23 16.6 km</title></path><path d="M 119.4528033332814 157.9112857663389 l 12.020139488156568 4.8884860867001825 a33.976172376113155,33.976172376113155 0 0,0 -0.22436271476858483,0.5383888390661786 l -11.934450928851499 -5.094107435207639" fill="#44ffe7" stroke="none"><title>2024-04-24 16.6 km</title></path><path d="M 119.31412917781788 158.24405325689762 l 11.961063218406707 5.105466639154203 a34.00510757042164,34.00510757042164 0 0,0 -0.233770731977965,0.53491318342204 l -11.871658604411778 -5.310041892352088" fill="#44ffe6" stroke="none"><title>2024-04-25 16.6 km</title></path><path d="M 119.16976305983485 158.57439118712176 l 11.784187537276226 5.270917196609413 a33.909285185757156,33.909285185757156 0 0,0 -0.2422342649297085,0.5293255851959727 l -11.691968807491461 -5.472431764020075" fill="#44ffe7" stroke="none"><title>2024-04-26 16.5 km</title></path><path d="M 118.70294669586154 159.54985784667824 l 16.870436923854236 8.614165299942213 a39.942425552617934,39.942425552617934 0 0,0 -0.3170514307233435,0.607987923210144 l -16.720077424155942 -8.90249946625686" fill="#3cffa3" stroke="none"><title>2024-04-29 24.2 km</title></path><line stroke="#FFFFFF" stroke-width="0.3" x1="174.33088141563837" x2="178.70328620479359" y1="191.23008692659167" y2="193.65538615756765" /><path d="M 175.20536237346943 191.71514677278685 a86.0,86.0 0 0,1 -30.301960400862466,31.631185727798858" fill="none" id="id5" stroke="none" /><text fill="#FFFFFF" style="font-size:6.75px; font-family:Arial;" text-anchor="middle"><textPath startOffset="22.145653131862474" xlink:href="#id5">May</textPath></text><path d="M 118.18653347947321 160.5 l 6.167989764733285 3.5610905510276165 a28.122181102055237,28.122181102055237 0 0,0 -0.24496601200275192,0.4160058430662229 l -6.105950042600767 -3.666447562387389" fill="#4cdaff" stroke="none"><title>2024-05-02 9.1 km</title></path><path d="M 117.423217284605 161.72311816256416 l 10.77758236710909 7.251638404809814 a33.99009396555442,33.99009396555442 0 0,0 -0.3298823807996018,0.481308252241009 l -10.65151024949417 -7.435581392120866" fill="#44ffe7" stroke="none"><title>2024-05-06 16.6 km</title></path><path d="M 117.21940702142032 162.0204834274941 l 10.567880627970586 7.377201421293689 a33.888103110131205,33.888103110131205 0 0,0 -0.3370815751983948,0.4741474493987159 l -10.439683954242232 -7.557526097401909" fill="#44ffe8" stroke="none"><title>2024-05-07 16.5 km</title></path><path d="M 117.01052211995028 162.3143062007846 l 14.12951067177663 10.228676089574364 a38.44330491533299,38.44330491533299 0 0,0 -0.3915688229482296,0.5312383112991613 l -13.951839829244573 -10.469720710142402" fill="#3effb4" stroke="none"><title>2024-05-08 22.3 km</title></path><path d="M 116.79662413953412 162.60449989151573 l 8.866799857422759 6.653811915569649 a32.08572743302707,32.08572743302707 0 0,0 -0.3343760954222249,0.43770904252455833 l -8.751271784646228 -6.805041871335084" fill="#47fffb" stroke="none"><title>2024-05-09 14.2 km</title></path><path d="M 116.57777611688842 162.89097897827486 l 9.9661994021644 7.749776935141212 a33.62474447536063,33.62474447536063 0 0,0 -0.35823733810656494,0.4526211740071142 l -9.831695633416272 -7.91971805306301" fill="#44ffeb" stroke="none"><title>2024-05-10 16.1 km</title></path><path d="M 116.35404254752997 163.17365903436018 l 10.56312025615151 8.50890195430612 a34.563956724124154,34.563956724124154 0 0,0 -0.3761762975712858,0.4588739176265642 l -10.415497139341596 -8.688978153631178" fill="#43ffe0" stroke="none"><title>2024-05-11 17.3 km</title></path><path d="M 115.6541949942343 163.99807769240084 l 4.701492042223769 4.204103174995082 a27.307020764917233,27.307020764917233 0 0,0 -0.3154640962251166,0.34675030292713477 l -4.6286302451567725 -4.284191053479889" fill="#4dd2ff" stroke="none"><title>2024-05-14 8.1 km</title></path><path d="M 115.41159269507618 164.26474011684314 l 9.491158517796027 8.784874629302767 a33.932753467939435,33.932753467939435 0 0,0 -0.39934676499366306,0.42409242548850884 l -9.338955919066104 -8.946508514735772" fill="#44ffe7" stroke="none"><title>2024-05-15 16.5 km</title></path><path d="M 115.16444852881244 164.52719865689866 l 9.46159700972257 9.06399590533096 a34.10258904744583,34.10258904744583 0 0,0 -0.4086029294889188,0.41926260160903955 l -9.304607279082845 -9.225081199007738" fill="#44ffe5" stroke="none"><title>2024-05-16 16.7 km</title></path><path d="M 114.91283532996324 164.78537596483093 l 9.13742598483583 9.05932879612546 a33.867167204348476,33.867167204348476 0 0,0 -0.41286992602965145,0.40934114444723485 l -8.980564138676213 -9.214849950801355" fill="#44ffe8" stroke="none"><title>2024-05-17 16.4 km</title></path><path d="M 114.65682725009322 165.03919595460226 l 15.197503074433692 15.593976981315993 a42.77466917753826,42.77466917753826 0 0,0 -0.5302582521391519,0.5079754106223727 l -14.927572336429227 -15.852564522243947" fill="#38ff81" stroke="none"><title>2024-05-18 27.8 km</title></path><path d="M 114.13192950727249 165.5334660781643 l 8.444293407327702 9.281757677130344 a33.548191771167915,33.548191771167915 0 0,0 -0.42931297217852304,0.3838943069971916 l -8.2837154083258 -9.425347514010921" fill="#45ffeb" stroke="none"><title>2024-05-20 16.0 km</title></path><path d="M 113.86319453409587 165.7737705482809 l 8.435410029722338 9.59794814696261 a33.77797914387573,33.77797914387573 0 0,0 -0.4388250401234091,0.37904661803517664 l -8.269405509836073 -9.741338897462503" fill="#44ffe9" stroke="none"><title>2024-05-21 16.3 km</title></path><path d="M 113.59037401385872 166.0094264158162 l 8.27411406400463 9.746885562433572 a33.78525485515777,33.78525485515777 0 0,0 -0.4453631271804342,0.3715377605824295 l -8.105576602662302 -9.887485506927872" fill="#44ffe9" stroke="none"><title>2024-05-22 16.3 km</title></path><path d="M 113.31354834802062 166.24036423190432 l 8.223604271111311 10.031460071405219 a33.97142468551691,33.97142468551691 0 0,0 -0.4541643481139728,0.3658426502332637 l -8.050189152642087 -10.171151015431887" fill="#44ffe7" stroke="none"><title>2024-05-23 16.6 km</title></path><path d="M 113.03279911837588 166.46651593811092 l 7.9123522743018775 9.996998622424593 a33.74932547115373,33.74932547115373 0 0,0 -0.45736773354091714,0.3556519159654238 l -7.73957459612573 -10.13135159001081" fill="#44ffe9" stroke="none"><title>2024-05-24 16.3 km</title></path><path d="M 112.16784306229584 167.11559508785302 l 7.377749716576497 10.377728917274531 a33.73296698970356,33.73296698970356 0 0,0 -0.4748395538776161,0.3314748865047627 l -7.198515071525122 -10.502848619584416" fill="#44ffe9" stroke="none"><title>2024-05-27 16.3 km</title></path><path d="M 111.8722381534696 167.3219502720479 l 7.193780384674692 10.49594056997181 a33.72459212200181,33.72459212200181 0 0,0 -0.4803405088621572,0.3231945312782623 l -7.012543587715532 -10.617884775307193" fill="#44ffe9" stroke="none"><title>2024-05-28 16.2 km</title></path><path d="M 111.5731344415666 167.5232005979908 l 7.1161272148973875 10.774723589108222 a33.91254951434024,33.91254951434024 0 0,0 -0.4885254035658806,0.3166562643949252 l -6.930116179074497 -10.895293695207041" fill="#44ffe7" stroke="none"><title>2024-05-29 16.5 km</title></path><path d="M 111.27062007382361 167.7192867562869 l 6.938190361489694 10.907987651049783 a33.92759374700965,33.92759374700965 0 0,0 -0.4941083424612056,0.3083601497907946 l -6.749917890238773 -11.025483597682125" fill="#44ffe7" stroke="none"><title>2024-05-30 16.5 km</title></path><path d="M 110.96478420261333 167.91015095944536 l 5.792512905698458 9.461634507213418 a32.09395030233933,32.09395030233933 0 0,0 -0.47234232148222105,0.2836279925528594 l -5.6292378276588 -9.559676500302201" fill="#46fffb" stroke="none"><title>2024-05-31 14.2 km</title></path><line stroke="#FFFFFF" stroke-width="0.3" x1="143.1302829299769" x2="145.66735839644613" y1="223.24464959558577" y2="227.55315839532614" /><path d="M 143.63769802327073 224.10635135553383 a86.0,86.0 0 0,1 -40.68552437913181,11.842963189579606" fill="none" id="id6" stroke="none" /><text fill="#FFFFFF" style="font-size:6.75px; font-family:Arial;" text-anchor="middle"><textPath startOffset="21.407464694133747" xlink:href="#id6">June</textPath></text><path d="M 110.02825361518725 168.45085714620012 l 5.706784501522897 10.499840714267938 a32.95048301834786,32.95048301834786 0 0,0 -0.49929582007969164,0.2658469012435299 l -5.525699865656652 -10.596258083234037" fill="#45fff2" stroke="none"><title>2024-06-03 15.3 km</title></path><path d="M 109.71004243097381 168.62028667847756 l 5.919291926307096 11.351022756589742 a33.801708266066,33.801708266066 0 0,0 -0.51680039922918,0.26388196619505155 l -5.7235643053643335 -11.450962674457632" fill="#44ffe9" stroke="none"><title>2024-06-04 16.3 km</title></path><path d="M 109.3889696526874 168.7842287268047 l 5.7038925893684675 11.41160606490577 a33.75770918510242,33.75770918510242 0 0,0 -0.5205756251422438,0.2546396246343137 l -5.507156714964155 -11.507839439637307" fill="#44ffe9" stroke="none"><title>2024-06-05 16.3 km</title></path><path d="M 109.06512990194946 168.9426349767075 l 5.508480175560531 11.510604963270657 a33.760775073051576,33.760775073051576 0 0,0 -0.5249178137998507,0.24568804151253984 l -5.310073647889174 -11.60346923635373" fill="#44ffe9" stroke="none"><title>2024-06-06 16.3 km</title></path><path d="M 108.73861861582097 169.09545874513697 l 5.274803663370512 11.52639795496168 a33.676016862691995,33.676016862691995 0 0,0 -0.5277297997485635,0.2360468269754711 l -5.076160460766322 -11.615248532847003" fill="#44ffea" stroke="none"><title>2024-06-07 16.2 km</title></path><path d="M 107.74402155503746 169.5199930879884 l 5.2039537253909485 13.117362862163594 a35.11192201061496,35.11192201061496 0 0,0 -0.5621715284348912,0.2174600240185227 l -4.978009934462528 -13.204762774320157" fill="#42ffda" stroke="none"><title>2024-06-10 18.0 km</title></path><path d="M 107.407793817531 169.65005319985036 l 4.552907392449578 12.077127776410586 a33.90681916863989,33.90681916863989 0 0,0 -0.5464016875985492,0.20064626813817493 l -4.344916553196901 -12.153504893557484" fill="#44ffe7" stroke="none"><title>2024-06-11 16.5 km</title></path><path d="M 107.06938296918513 169.77432235084166 l 6.3351216571556135 17.72046277962972 a39.818835445776244,39.818835445776244 0 0,0 -0.6456230301512335,0.22458120397576703 l -6.029992854959358 -17.82660241617408" fill="#3cffa4" stroke="none"><title>2024-06-12 24.0 km</title></path><path d="M 106.72888874123015 169.89276391827306 l 9.243212745685684 27.325916071348647 a49.84688321119626,49.84688321119626 0 0,0 -0.8129249570935054,0.26722458013798245 l -8.772765050944445 -27.480561572888647" fill="#37ff2e" stroke="none"><title>2024-06-13 36.8 km</title></path><path d="M 106.38641147887787 170.00534299687104 l 3.941382573376477 12.346324774572889 a33.96017870358847,33.96017870358847 0 0,0 -0.5568812212349651,0.17252322584737842 l -3.7288607192698873 -12.412164588226911" fill="#44ffe7" stroke="none"><title>2024-06-14 16.5 km</title></path><path d="M 106.0420521117495 170.11202640906438 l 12.490404545445692 41.5764944478712 a64.41215378534858,64.41215378534858 0 0,0 -1.0616962911302188,0.30904431702046603 l -11.774848241933867 -41.78478245919418" fill="#e3ff1b" stroke="none"><title>2024-06-15 55.4 km</title></path><path d="M 105.69591212413111 170.2127827147619 l 11.613850067187316 41.213456734234605 a63.818576918993166,63.818576918993166 0 0,0 -1.0570137151574097,0.28809378839736255 l -10.904654951095212 -41.406751016776106" fill="#dbff1b" stroke="none"><title>2024-06-16 54.7 km</title></path><path d="M 105.3480935250658 170.30758222061772 l 5.577829527122066 21.17992724018919 a42.90208894451264,42.90208894451264 0 0,0 -0.7137982279421865,0.18144471825664363 l -5.213426005954482 -21.272557190281105" fill="#38ff7f" stroke="none"><title>2024-06-17 28.0 km</title></path><path d="M 104.9986988182912 170.39639698878244 l 3.0322818582888815 12.37274475054001 a33.7388989292687,33.7388989292687 0 0,0 -0.5637092763095432,0.1330338543082711 l -2.819440428239459 -12.422974748494505" fill="#44ffe9" stroke="none"><title>2024-06-18 16.3 km</title></path><path d="M 104.64783097203109 170.47920084513623 l 5.307813780292396 23.38720687333612 a44.98195847845797,44.98195847845797 0 0,0 -0.7544922071519241,0.16443806488956308 l -4.905559156521337 -23.4748763963594" fill="#35ff65" stroke="none"><title>2024-06-19 30.6 km</title></path><path d="M 104.29559338865022 170.5559693870025 l 2.617902027230072 12.527608891497698 a33.798218452679556,33.798218452679556 0 0,0 -0.5689423336102203,0.11380440088139904 l -2.402463208088893 -12.570702689041958" fill="#44ffe9" stroke="none"><title>2024-06-20 16.3 km</title></path><path d="M 103.94208987418118 170.62667999033965 l 2.334182142061653 12.213427298755308 a33.43447677444857,33.43447677444857 0 0,0 -0.5646689339900377,0.10290148988485821 l -2.124178474520558 -12.251696962571529" fill="#45ffed" stroke="none"><title>2024-06-21 15.9 km</title></path><path d="M 103.58742460773223 170.6913118164083 l 3.140997589694566 18.11643940973048 a39.38671375599519,39.38671375599519 0 0,0 -0.6671781030388817,0.10978390296400048 l -2.829541983602612 -18.167689311190152" fill="#3dffa9" stroke="none"><title>2024-06-22 23.5 km</title></path><path d="M 102.875027216393 170.80226474461375 l 1.7426096012386123 12.608654994560686 a33.72850615721221,33.72850615721221 0 0,0 -0.5742232850331859,0.07434470059821488 l -1.525908494314651 -12.636711291359296" fill="#44ffe9" stroke="none"><title>2024-06-24 16.3 km</title></path><path d="M 102.51750503828377 170.84855314841334 l 1.546422466964123 12.806596412764723 a33.89962534827154,33.89962534827154 0 0,0 -0.5783342243556759,0.0648035561288083 l -1.3263523410076479 -12.831255729400503" fill="#44ffe8" stroke="none"><title>2024-06-25 16.5 km</title></path><path d="M 102.15924093988457 170.88869738790638 l 1.3238273832411318 12.806829053466497 a33.875068518083026,33.875068518083026 0 0,0 -0.5789417562620248,0.05482638624148859 l -1.1037860635940917 -12.82766719521317" fill="#44ffe8" stroke="none"><title>2024-06-26 16.4 km</title></path><path d="M 101.80034050326958 170.9226856324012 l 1.097026921926898 12.749115723427288 a33.79622677967116,33.79622677967116 0 0,0 -0.5784481792486333,0.04477554743581041 l -0.8780097479030288 -12.766069037858152" fill="#44ffe9" stroke="none"><title>2024-06-27 16.3 km</title></path><path d="M 101.44090949804482 170.95050786540614 l 0.8871859065744372 12.899488371050428 a33.9299612941296,33.9299612941296 0 0,0 -0.5814232477913994,0.03497697878584135 l -0.6656183066505726 -12.912817327660962" fill="#44ffe7" stroke="none"><title>2024-06-28 16.5 km</title></path><path d="M 101.08105385017728 170.97215588758144 l 2.4703497162925663 47.92412453684359 a68.98775198260157,68.98775198260157 0 0,0 -1.183219576104387,0.050812539678411275 l -1.6473043795873494 -47.95946964494783" fill="#ffde14" stroke="none"><title>2024-06-29 61.3 km</title></path><line stroke="#FFFFFF" stroke-width="0.3" x1="101.45913802915013" x2="101.54496967792366" y1="234.9874750549273" y2="239.98673829345242" /><path d="M 101.47630435890484 235.9873277026323 a86.0,86.0 0 0,1 -42.54439059252881,-10.42667462771756" fill="none" id="id7" stroke="none" /><text fill="#FFFFFF" style="font-size:6.75px; font-family:Arial;" text-anchor="middle"><textPath startOffset="22.145653131862474" xlink:href="#id7">July</textPath></text><line stroke="#FFFFFF" stroke-width="0.3" x1="58.13341422392154" x2="55.67067388415222" y1="223.97424548756322" y2="228.32567169271397" /><path d="M 57.64086615596768 224.84453072859336 a86.0,86.0 0 0,1 -31.369924170532247,-30.572349798747897" fill="none" id="id8" stroke="none" /><text fill="#FFFFFF" style="font-size:6.75px; font-family:Arial;" text-anchor="middle"><textPath startOffset="22.145653131862474" xlink:href="#id8">August</textPath></text><line stroke="#FFFFFF" stroke-width="0.3" x1="26.387840678322732" x2="22.057713659400548" y1="192.50000000000003" y2="195.00000000000006" /><path d="M 25.521815274538298 193.00000000000003 a86.0,86.0 0 0,1 -11.493303480769221,-40.785679425670985" fill="none" id="id9" stroke="none" /><text fill="#FFFFFF" style="font-size:6.75px; font-family:Arial;" text-anchor="middle"><textPath startOffset="21.40746469413373" xlink:href="#id9">September</textPath></text><line stroke="#FFFFFF" stroke-width="0.3" x1="15.003131293944662" x2="10.003315487706104" y1="150.72959589197737" y2="150.7725132973878" /><path d="M 14.003168132696942 150.73817937305947 a86.0,86.0 0 0,1 10.791469493833604,-42.45332614584628" fill="none" id="id10" stroke="none" /><text fill="#FFFFFF" style="font-size:6.75px; font-family:Arial;" text-anchor="middle"><textPath startOffset="22.145653131862435" xlink:href="#id10">October</textPath></text><line stroke="#FFFFFF" stroke-width="0.3" x1="26.387840678322718" x2="22.05771365940052" y1="107.5" y2="105.0" /><path d="M 25.521815274538284 107.0 a86.0,86.0 0 0,1 29.574782752854787,-30.34633250058573" fill="none" id="id11" stroke="none" /><text fill="#FFFFFF" style="font-size:6.75px; font-family:Arial;" text-anchor="middle"><textPath startOffset="21.40746469413373" xlink:href="#id11">November</textPath></text><line stroke="#FFFFFF" stroke-width="0.3" x1="56.869717070023135" x2="54.33264160355391" y1="76.7553504044142" y2="72.44684160467386" /><path d="M 56.362301976729285 75.89364864446614 a86.0,86.0 0 0,1 42.16139366436587,-11.88097634709845" fill="none" id="id12" stroke="none" /><text fill="#FFFFFF" style="font-size:6.75px; font-family:Arial;" text-anchor="middle"><textPath startOffset="22.145653131862474" xlink:href="#id12">December</textPath></text></g></g></svg>